<?xml version="1.0" encoding="UTF-8" standalone="no"?>
<!-- Created with Inkscape (http://www.inkscape.org/) -->

<svg
   width="23"
   height="25"
   viewBox="0 0 111.47583 118.50667"
   version="1.1"
   id="svg1"
   xml:space="preserve"
   xmlns="http://www.w3.org/2000/svg"
   xmlns:svg="http://www.w3.org/2000/svg"><defs
     id="defs1" /><g
     id="layer1"
     transform="translate(-48.653838,-176.79001)"><path
       style="fill:#FFFFFF"
       d="m 53.007169,294.91753 c -1.494388,-0.53268 -2.849341,-1.73731 -3.604423,-3.20452 -0.662644,-1.28759 -0.662644,-1.28759 -0.732867,-54.87282 -0.04969,-37.91909 0.01414,-53.99296 0.218344,-54.97984 0.358538,-1.73274 1.597668,-3.41041 3.171526,-4.29394 1.17827,-0.66146 1.17827,-0.66146 29.8088,-0.73221 28.630521,-0.0708 28.630521,-0.0708 28.707281,11.37708 0.0754,11.24787 0.087,11.46703 0.6644,12.54672 0.3232,0.60439 1.03757,1.47101 1.5875,1.92583 1.85551,1.53461 2.4917,1.60549 14.40934,1.60549 10.7999,0 10.7999,0 10.7999,11.64167 0,11.64166 0,11.64166 -9.34412,11.64166 -5.56892,0 -9.9784,0.11586 -10.91406,0.28676 -4.78576,0.87412 -8.79173,4.63384 -10.03881,9.42168 -0.55639,2.13614 -0.5886,50.52851 -0.035,52.60094 0.40988,1.53439 1.27824,3.33787 2.19756,4.56406 0.6447,0.8599 0.6447,0.8599 -27.613027,0.84828 -23.336326,-0.01 -28.43618,-0.0752 -29.282334,-0.37684 z m 43.557097,-22.09694 c 1.16942,-0.91987 1.14942,-2.45297 -0.0439,-3.36921 -0.60752,-0.46644 -32.511249,-0.46644 -33.118768,0 -0.527464,0.40497 -1.035405,1.34333 -1.035405,1.91277 0,0.23905 0.348029,0.78265 0.773398,1.20802 0.773397,0.7734 0.773397,0.7734 16.765359,0.7734 15.548836,0 16.010456,-0.0145 16.659366,-0.52498 z m 0.2434,-24.27383 c 0.81576,-0.81593 0.80455,-2.34716 -0.0221,-3.01653 -0.58249,-0.47167 -1.37774,-0.49508 -16.824642,-0.49508 -15.056347,0 -16.252296,0.033 -16.760447,0.46303 -1.127841,0.95434 -0.871626,2.73604 0.493787,3.43376 0.512659,0.26196 4.142565,0.32099 16.590163,0.26979 15.933919,-0.0655 15.933919,-0.0655 16.523229,-0.65497 z m 16.339264,-24.31708 c 0.72124,-0.9169 0.69297,-1.75108 -0.0902,-2.66154 -0.63855,-0.74236 -0.63855,-0.74236 -24.995764,-0.74236 -24.357227,0 -24.357227,0 -24.94666,0.58943 -0.815893,0.8159 -0.804745,2.34711 0.02196,3.01653 0.587495,0.47573 1.566228,0.49508 25.036838,0.49508 24.425436,0 24.425436,0 24.973806,-0.69714 z M 97.964626,202.31697 c 1.05716,-1.05716 0.78992,-2.54117 -0.58994,-3.2761 -0.42154,-0.22451 -5.02708,-0.3078 -17.019835,-0.3078 -16.441913,0 -16.441913,0 -17.21531,0.7734 -0.839098,0.8391 -0.94143,1.32715 -0.465597,2.22056 0.667736,1.25372 0.207712,1.22207 17.894329,1.23096 16.746923,0.008 16.746923,0.008 17.396353,-0.64102 z m 19.517994,92.50141 c -2.8348,-0.98738 -4.60364,-2.75276 -5.49231,-5.48156 -0.38105,-1.17007 -0.41795,-3.92427 -0.35249,-26.31 0.0731,-25.00312 0.0731,-25.00312 0.78608,-26.35451 0.93451,-1.77131 3.04257,-3.64471 4.785,-4.25236 1.28184,-0.44702 2.63737,-0.48167 18.84369,-0.48167 17.4625,0 17.4625,0 18.92978,0.68821 2.09412,0.98222 3.29074,2.14403 4.28197,4.15742 0.86533,1.75766 0.86533,1.75766 0.86533,26.63414 0,23.3766 -0.029,24.95975 -0.48167,26.25767 -0.63962,1.83412 -2.46626,3.82733 -4.35951,4.75704 -1.50882,0.74093 -1.50882,0.74093 -18.97131,0.80223 -16.24875,0.057 -17.55787,0.0281 -18.83456,-0.41661 z m 10.06762,-9.0566 c 0.53773,-0.42298 0.69714,-0.78159 0.69714,-1.56829 0,-0.78671 -0.15941,-1.14532 -0.69714,-1.5683 -0.62022,-0.48787 -1.05944,-0.54837 -3.98077,-0.54837 -3.13355,0 -3.31332,0.0297 -3.93307,0.64943 -0.40937,0.40937 -0.64943,0.95173 -0.64943,1.46724 0,0.5155 0.24006,1.05786 0.64943,1.46723 0.61975,0.61975 0.79952,0.64943 3.93307,0.64943 2.92133,0 3.36055,-0.0605 3.98077,-0.54837 z m 12.33679,-0.11093 c 0.86667,-0.92254 0.82445,-2.15847 -0.10093,-2.95445 -0.6722,-0.5782 -0.94101,-0.61958 -4.02487,-0.61958 -3.15577,0 -3.33381,0.0292 -3.954,0.64943 -0.40937,0.40937 -0.64943,0.95173 -0.64943,1.46724 0,0.5155 0.24006,1.05786 0.64943,1.46723 0.62225,0.62225 0.792,0.64943 4.05492,0.64943 3.28746,0 3.42696,-0.0229 4.02488,-0.6593 z m 12.16717,0.004 c 0.84365,-0.89803 0.78903,-2.19588 -0.12553,-2.98261 -0.6378,-0.54864 -0.95109,-0.59531 -3.99661,-0.59531 -3.15577,0 -3.3338,0.0292 -3.954,0.64943 -0.40937,0.40937 -0.64943,0.95173 -0.64943,1.46724 0,0.5155 0.24006,1.05786 0.64943,1.46723 0.62225,0.62225 0.792,0.64943 4.05493,0.64943 3.28204,0 3.4278,-0.0238 4.02121,-0.65541 z m -24.50396,-9.41796 c 0.53773,-0.42297 0.69714,-0.78159 0.69714,-1.56829 0,-0.78671 -0.15941,-1.14532 -0.69714,-1.5683 -0.62022,-0.48787 -1.05944,-0.54837 -3.98077,-0.54837 -3.13355,0 -3.31332,0.0297 -3.93307,0.64943 -0.40937,0.40937 -0.64943,0.95173 -0.64943,1.46724 0,0.5155 0.24006,1.05786 0.64943,1.46723 0.61975,0.61975 0.79952,0.64943 3.93307,0.64943 2.92133,0 3.36055,-0.0605 3.98077,-0.54837 z m 12.33679,-0.11093 c 0.86667,-0.92254 0.82445,-2.15847 -0.10093,-2.95445 -0.6722,-0.5782 -0.94101,-0.61958 -4.02487,-0.61958 -3.15577,0 -3.33381,0.0292 -3.954,0.64943 -0.40937,0.40937 -0.64943,0.95173 -0.64943,1.46724 0,0.5155 0.24006,1.05786 0.64943,1.46723 0.62225,0.62225 0.792,0.64943 4.05492,0.64943 3.28746,0 3.42696,-0.0229 4.02488,-0.6593 z m 12.16717,0.004 c 0.84365,-0.89804 0.78903,-2.19589 -0.12553,-2.98262 -0.6378,-0.54864 -0.95109,-0.59531 -3.99661,-0.59531 -3.15577,0 -3.3338,0.0292 -3.954,0.64943 -0.40937,0.40937 -0.64943,0.95173 -0.64943,1.46724 0,0.5155 0.24006,1.05786 0.64943,1.46723 0.62225,0.62225 0.792,0.64943 4.05493,0.64943 3.28204,0 3.4278,-0.0238 4.02121,-0.6554 z m -24.41918,-9.44488 c 0.88846,-0.83467 0.84641,-2.37721 -0.0848,-3.10968 -0.6128,-0.48203 -1.06251,-0.54837 -3.7173,-0.54837 -3.94208,0 -4.84597,0.42577 -4.84597,2.28262 0,0.35852 0.29224,0.94409 0.64943,1.30128 0.6215,0.62151 0.79428,0.64943 4.01784,0.64943 3.09428,0 3.41825,-0.0468 3.98078,-0.57528 z m 12.25201,-0.084 c 0.87612,-0.93259 0.82483,-2.15814 -0.12449,-2.97471 -0.71715,-0.61687 -0.8669,-0.63675 -4.16912,-0.55344 -3.22898,0.0815 -3.45419,0.1222 -3.93043,0.71104 -0.70356,0.86989 -0.64392,2.03882 0.14424,2.82698 0.62225,0.62225 0.792,0.64943 4.05492,0.64943 3.28746,0 3.42696,-0.0228 4.02488,-0.6593 z m 12.16717,0.004 c 0.85325,-0.90824 0.78933,-2.19564 -0.14909,-3.00288 -0.68254,-0.58713 -0.87389,-0.61159 -4.14085,-0.52917 -3.22899,0.0815 -3.4542,0.1222 -3.93044,0.71104 -0.70356,0.86989 -0.64392,2.03882 0.14424,2.82698 0.62225,0.62225 0.792,0.64943 4.05493,0.64943 3.28204,0 3.4278,-0.0238 4.02121,-0.6554 z m -0.001,-8.86287 c 0.28734,-0.28734 0.59099,-0.79555 0.67477,-1.12936 0.0838,-0.33381 0.11657,-3.60797 0.0729,-7.2759 -0.0779,-6.53562 -0.0915,-6.681 -0.68197,-7.27115 -0.60253,-0.60219 -0.60253,-0.60219 -15.74271,-0.6775 -8.3271,-0.0414 -15.4111,-0.009 -15.74223,0.0729 -0.33112,0.0815 -0.83714,0.38329 -1.12448,0.67063 -0.49426,0.49426 -0.52243,0.90573 -0.52243,7.6305 0,6.79041 0.0245,7.13923 0.54837,7.80521 0.54837,0.69714 0.54837,0.69714 16.27187,0.69714 15.30321,0 15.73747,-0.014 16.24594,-0.52244 z m -28.8329,-7.94712 c 0,-4.2359 0,-4.2359 12.63385,-4.16719 12.63386,0.0687 12.63386,0.0687 12.70672,4.2359 0.0729,4.16719 0.0729,4.16719 -12.63385,4.16719 -12.70672,0 -12.70672,0 -12.70672,-4.2359 z m -7.06218,-50.00622 c -1.35454,-0.54562 -1.41878,-0.9551 -1.34274,-8.55856 0.0705,-7.05306 0.0705,-7.05306 8.00639,0.88631 7.93585,7.93937 7.93585,7.93937 0.92604,7.9226 -3.85539,-0.009 -7.27075,-0.12188 -7.58969,-0.25035 z m 9.64187,-10.77355 c -8.12723,-8.13313 -11.04636,-11.21472 -11.04636,-11.66113 0,-0.60676 0,-0.60676 9.32657,-0.528 8.97295,0.0758 9.36668,0.10041 10.38489,0.64984 1.23838,0.66823 2.25603,1.70469 2.94636,3.00079 0.45421,0.8528 0.49322,1.65854 0.49322,10.18646 0,9.0597 -0.0115,9.262 -0.52916,9.33341 -0.38923,0.0537 -3.45032,-2.85027 -11.57552,-10.98137 z"
       id="path1" /></g></svg>
