<svg width="18" height="23" viewBox="0 0 18 23" fill="none" xmlns="http://www.w3.org/2000/svg">
<path d="M15.6003 20.3451C15.6077 20.3394 15.6168 20.3363 15.6261 20.3363C15.6354 20.3363 15.6445 20.3394 15.6519 20.3451L17.2444 21.8955C17.2444 21.8955 17.3007 21.8955 17.3007 21.8627V1H1.00018V21.8253C0.999455 21.8326 1.00092 21.84 1.0044 21.8465C1.00787 21.8531 1.0132 21.8584 1.01971 21.8619C1.02622 21.8654 1.03362 21.8669 1.04098 21.8662C1.04834 21.8656 1.05533 21.8627 1.06107 21.858L3.11268 20.317C3.11933 20.3117 3.12759 20.3088 3.1361 20.3088C3.14462 20.3088 3.15288 20.3117 3.15952 20.317L5.2814 21.8768C5.28836 21.8834 5.29758 21.887 5.30716 21.887C5.31674 21.887 5.32596 21.8834 5.33292 21.8768L7.20654 20.317C7.20654 20.317 7.23933 20.317 7.25806 20.317L9.37525 21.8721C9.38221 21.8787 9.39143 21.8824 9.40101 21.8824C9.4106 21.8824 9.41982 21.8787 9.42677 21.8721L11.3941 20.3451C11.4018 20.3382 11.4118 20.3344 11.4222 20.3344C11.4325 20.3344 11.4426 20.3382 11.4503 20.3451L13.5628 21.8955C13.5705 21.9024 13.5805 21.9063 13.5909 21.9063C13.6013 21.9063 13.6113 21.9024 13.619 21.8955L15.4926 20.3498" stroke="white" stroke-width="1.40521" stroke-linecap="round"/>
<path d="M2.92993 11.0283H9.15971" stroke="white" stroke-width="1.40521" stroke-linecap="round"/>
<path d="M2.92993 8.52734H10.4103" stroke="white" stroke-width="1.40521" stroke-linecap="round"/>
<path d="M2.92993 3.48242H11.0474" stroke="white" stroke-width="1.40521" stroke-linecap="round"/>
<path d="M2.92993 5.87598H9.68901" stroke="white" stroke-width="1.40521" stroke-linecap="round"/>
<path d="M13.3706 10.9531H15.3707" stroke="white" stroke-width="1.40521" stroke-linecap="round"/>
<path d="M2.92993 13.6982H10.4103" stroke="white" stroke-width="1.40521" stroke-linecap="round"/>
<path d="M13.769 13.6279H15.371" stroke="white" stroke-width="1.40521" stroke-linecap="round"/>
<path d="M13.3706 16.3916H15.3707" stroke="white" stroke-width="1.40521" stroke-linecap="round"/>
<path d="M13.3706 8.45215H15.3707" stroke="white" stroke-width="1.40521" stroke-linecap="round"/>
<path d="M13.769 5.87598H15.371" stroke="white" stroke-width="1.40521" stroke-linecap="round"/>
<path d="M13.3706 3.48242H15.3707" stroke="white" stroke-width="1.40521" stroke-linecap="round"/>
</svg>
