<svg width="11" height="14" viewBox="0 0 11 14" fill="none" xmlns="http://www.w3.org/2000/svg">
<path d="M5.65436 1.02447C6.15227 1.02447 6.62979 1.19754 6.98186 1.50561C7.33394 1.81367 7.53173 2.2315 7.53173 2.66717V5.95257H3.77699V2.66717C3.77699 2.2315 3.97478 1.81367 4.32686 1.50561C4.67893 1.19754 5.15645 1.02447 5.65436 1.02447ZM8.47041 5.95257V2.66717C8.47041 2.01367 8.17372 1.38693 7.64561 0.924828C7.1175 0.462729 6.40122 0.203125 5.65436 0.203125C4.9075 0.203125 4.19122 0.462729 3.66311 0.924828C3.135 1.38693 2.83831 2.01367 2.83831 2.66717V5.95257C2.3404 5.95257 1.86288 6.12564 1.51081 6.4337C1.15873 6.74177 0.960938 7.1596 0.960938 7.59527V11.702C0.960938 12.1377 1.15873 12.5555 1.51081 12.8636C1.86288 13.1716 2.3404 13.3447 2.83831 13.3447H8.47041C8.96832 13.3447 9.44584 13.1716 9.79791 12.8636C10.15 12.5555 10.3478 12.1377 10.3478 11.702V7.59527C10.3478 7.1596 10.15 6.74177 9.79791 6.4337C9.44584 6.12564 8.96832 5.95257 8.47041 5.95257Z" fill="white"/>
</svg>
